<?xml version="1.0" encoding="UTF-8"?>
<!DOCTYPE svg PUBLIC "-//W3C//DTD SVG 1.1//EN" "http://www.w3.org/Graphics/SVG/1.1/DTD/svg11.dtd">
<svg version="1.1" xmlns="http://www.w3.org/2000/svg" xmlns:xlink="http://www.w3.org/1999/xlink" x="0" y="0" width="643" height="333" viewBox="0, 0, 643, 333">
  <g id="Layer_1">
    <path d="M263.247,125.445 C262.281,122.278 261.265,119.129 260.415,115.933 C258.562,109.587 256.915,103.186 255.572,96.731 C254.118,90.299 252.973,83.807 252.112,77.289 C251.192,70.778 250.732,64.22 250.661,57.684 C250.672,54.421 250.785,51.152 251.128,47.921 C251.4,44.676 252.001,41.486 252.874,38.387 C253.7,35.266 255.009,32.288 256.93,29.737 C258.836,27.204 261.589,25.18 264.906,24.494 C264.083,24.602 263.231,24.664 262.393,24.819 C261.597,25.093 260.734,25.272 259.955,25.644 C258.394,26.397 256.954,27.419 255.704,28.646 C253.199,31.112 251.433,34.226 250.13,37.422 C247.536,43.87 246.493,50.743 246.035,57.544 C245.183,71.203 246.977,84.772 249.756,97.995 C252.671,111.208 256.785,124.122 262.031,136.533 C267.195,148.973 273.51,160.917 280.908,172.106 C275.691,159.744 270.649,147.439 266.371,134.877 C265.28,131.747 264.299,128.581 263.247,125.445 M385.791,46.754 C384.906,43.441 383.667,40.142 381.737,37.173 C380.742,35.71 379.594,34.343 378.272,33.158 C376.929,31.996 375.429,31.025 373.82,30.355 C370.597,28.983 367.131,28.788 363.892,29.207 C367.143,29.603 370.307,30.463 372.864,32.171 C374.128,33.035 375.265,34.027 376.227,35.169 C377.169,36.332 377.94,37.62 378.58,38.973 C379.862,41.688 380.62,44.673 381.036,47.735 C381.463,50.793 381.668,53.918 381.647,57.068 C381.507,69.686 379.398,82.43 377.142,95.116 C374.831,107.816 372.143,120.515 369.728,133.32 C367.285,146.109 364.915,159.009 363.892,172.106 C367.948,159.637 371.866,147.236 375.38,134.655 C378.946,122.097 382.101,109.385 384.463,96.443 C385.612,89.967 386.597,83.44 387.185,76.832 C387.753,70.23 388.025,63.543 387.428,56.816 C387.121,53.458 386.698,50.077 385.791,46.754 M544.539,85.927 C548.397,84.006 552.459,82.495 556.558,81.103 C564.76,78.326 573.12,75.953 581.413,73.243 C585.549,71.861 589.694,70.46 593.735,68.741 C597.766,67.021 601.796,65.114 605.294,62.273 C607.041,60.845 608.56,59.156 609.74,57.221 C610.904,55.305 611.706,52.992 611.363,50.665 C611.044,48.336 609.527,46.36 607.669,45.163 C605.803,43.928 603.647,43.305 601.504,42.973 C603.611,43.493 605.667,44.3 607.374,45.577 C609.077,46.842 610.295,48.726 610.439,50.771 C610.585,52.812 609.837,54.833 608.688,56.561 C607.532,58.295 606.041,59.84 604.357,61.079 C602.67,62.338 600.798,63.374 598.882,64.318 C596.971,65.277 594.992,66.122 592.992,66.919 C588.974,68.477 584.886,69.9 580.753,71.22 C572.506,73.909 564.142,76.374 555.98,79.517 C551.912,81.113 547.873,82.833 544.032,84.973 C542.133,86.074 540.287,87.288 538.597,88.7 C536.919,90.11 535.376,91.751 534.397,93.712 C536.857,90.074 540.702,87.814 544.539,85.927 M637.554,118.468 C637.583,118.839 637.242,119.092 637.002,119.327 C636.733,119.561 636.443,119.77 636.148,119.972 C635.561,120.373 634.947,120.743 634.329,121.099 C633.095,121.819 631.835,122.497 630.563,123.154 C628.023,124.468 625.445,125.715 622.856,126.936 C617.698,129.422 612.498,131.826 607.279,134.188 C596.849,138.923 586.429,143.688 575.937,148.295 L544.568,162.362 C539.345,164.714 534.115,167.075 528.855,169.304 C526.402,170.848 523.614,169.275 520.888,168.524 C519.509,168.103 518.09,167.756 516.644,167.638 C515.197,167.529 513.739,167.66 512.356,168.039 C515.197,167.465 518.063,168.062 520.707,169.062 C522.048,169.545 523.348,170.143 524.773,170.552 C525.479,170.764 526.241,170.889 527.034,170.871 C527.415,170.829 527.87,170.776 528.21,170.639 L529.239,170.28 C534.617,168.237 539.909,166.047 545.22,163.876 C555.819,159.489 566.312,154.858 576.811,150.247 C587.239,145.473 597.685,140.733 607.981,135.669 C613.123,133.123 618.253,130.554 623.327,127.867 C625.851,126.5 628.362,125.107 630.838,123.648 C632.074,122.916 633.302,122.17 634.5,121.372 C635.095,120.967 635.683,120.551 636.245,120.101 C636.526,119.876 636.804,119.644 637.055,119.385 C637.281,119.129 637.612,118.843 637.554,118.468 M510.779,112.047 C510.779,112.151 510.795,112.255 510.839,112.359 C510.883,112.449 510.943,112.538 511.018,112.612 L511.271,112.792 C511.374,112.836 511.479,112.852 511.583,112.852 C511.793,112.852 511.999,112.763 512.149,112.612 C512.298,112.463 512.387,112.255 512.387,112.047 C512.387,111.942 512.356,111.839 512.313,111.734 L512.149,111.481 C511.927,111.258 511.567,111.184 511.271,111.303 C511.167,111.347 511.093,111.406 511.018,111.481 L510.839,111.734 C510.795,111.839 510.779,111.942 510.779,112.047 M514.724,110.707 C514.857,111.02 515.156,111.198 515.468,111.198 C515.572,111.198 515.677,111.184 515.781,111.14 C516.183,110.974 516.376,110.5 516.197,110.081 C516.033,109.68 515.559,109.486 515.156,109.666 C514.739,109.828 514.546,110.306 514.724,110.707 M518.61,109.069 C518.744,109.383 519.041,109.562 519.354,109.562 C519.456,109.562 519.562,109.546 519.652,109.502 C520.066,109.324 520.261,108.847 520.083,108.445 C519.919,108.044 519.442,107.849 519.026,108.013 C518.624,108.192 518.431,108.668 518.61,109.069 M520.231,114.473 C520.365,114.814 520.692,115.008 521.051,115.008 C521.169,115.008 521.289,114.994 521.393,114.934 C521.854,114.741 522.062,114.22 521.868,113.758 C521.675,113.313 521.154,113.102 520.692,113.296 C520.246,113.49 520.038,114.012 520.231,114.473 M522.469,106.902 C522.422,107.071 522.418,107.256 522.494,107.434 C522.606,107.682 522.841,107.827 523.093,107.881 L523.238,107.924 C523.343,107.924 523.447,107.895 523.55,107.849 C523.953,107.684 524.147,107.211 523.968,106.807 C523.805,106.39 523.327,106.197 522.911,106.376 C522.68,106.471 522.529,106.671 522.469,106.902 M524.117,112.805 C524.261,113.123 524.573,113.318 524.902,113.331 L524.77,111.593 L524.593,111.631 C524.132,111.825 523.922,112.344 524.117,112.805 M526.592,118.792 L526.633,118.805 C526.767,118.805 526.884,118.776 527.02,118.716 C527.51,118.508 527.748,117.927 527.526,117.436 C527.484,117.336 527.42,117.257 527.354,117.18 L526.592,118.792 z M528.494,104.889 C538.027,84.703 568.353,103.923 603.154,86.254 C637.956,68.585 630.791,47.659 615.87,39.896 C600.95,32.133 592.045,48.106 596.06,46.901 C607.84,44.492 603.154,58.412 583.478,63.365 C564.104,68.242 526.725,81.536 528.494,104.889 M625.086,75.457 C624.782,75.803 624.469,76.148 624.143,76.497 C624.398,76.489 624.628,76.389 624.8,76.218 C624.994,76.025 625.096,75.787 625.096,75.519 L625.086,75.457 M625.544,79.359 C625.008,79.597 624.755,80.237 624.994,80.772 C625.172,81.174 625.558,81.413 625.977,81.413 C626.11,81.413 626.257,81.383 626.407,81.324 C626.942,81.086 627.197,80.461 626.958,79.909 C626.721,79.373 626.08,79.121 625.544,79.359 M617.179,84.212 C617.356,84.614 617.744,84.853 618.161,84.853 C618.294,84.853 618.443,84.822 618.593,84.763 C619.128,84.525 619.382,83.885 619.144,83.348 C618.903,82.812 618.266,82.559 617.729,82.798 C617.192,83.035 616.939,83.66 617.179,84.212 M623.044,81.635 C622.89,81.28 622.571,81.076 622.219,81.024 C622.025,80.995 621.825,81.002 621.629,81.086 C621.093,81.324 620.841,81.949 621.078,82.5 C621.258,82.886 621.656,83.141 622.062,83.141 L622.16,83.117 C622.274,83.105 622.39,83.094 622.493,83.035 C623.044,82.798 623.281,82.172 623.044,81.635 M615.229,85.061 C615.1,84.768 614.852,84.572 614.567,84.483 C614.126,84.78 613.666,85.077 613.203,85.376 C613.185,85.558 613.194,85.745 613.278,85.922 C613.442,86.326 613.844,86.563 614.246,86.563 C614.395,86.563 614.544,86.534 614.677,86.474 C615.229,86.236 615.465,85.611 615.229,85.061 M610.122,88.243 L610.346,88.275 C610.495,88.275 610.628,88.245 610.778,88.187 C611.313,87.949 611.567,87.324 611.328,86.772 L611.216,86.614 C610.625,86.97 610.017,87.328 609.394,87.682 C609.546,87.982 609.813,88.178 610.122,88.243 M607.472,88.751 C606.896,89.062 606.304,89.373 605.703,89.683 C605.901,89.873 606.163,89.989 606.433,89.989 C606.58,89.989 606.729,89.972 606.862,89.898 C607.329,89.696 607.55,89.219 607.472,88.751 M603.585,90.73 C603.029,90.996 602.474,91.266 601.921,91.518 C602.1,91.642 602.31,91.714 602.532,91.714 C602.679,91.714 602.813,91.684 602.963,91.624 C603.33,91.463 603.55,91.107 603.585,90.73 M594.717,95.138 C594.866,95.138 595,95.107 595.149,95.049 C595.575,94.858 595.811,94.423 595.772,93.976 C595.122,94.203 594.472,94.432 593.824,94.639 C594.023,94.951 594.354,95.138 594.717,95.138 M599.663,92.495 C599.089,92.732 598.518,92.951 597.947,93.171 C598.106,93.303 598.3,93.384 598.508,93.408 L598.632,93.426 C598.766,93.426 598.915,93.395 599.049,93.335 C599.408,93.181 599.616,92.852 599.663,92.495 M591.784,95.361 L591.724,95.272 C591.063,95.464 590.403,95.643 589.746,95.817 C589.751,95.948 589.777,96.081 589.834,96.21 C590.014,96.612 590.398,96.849 590.803,96.849 C590.951,96.849 591.101,96.819 591.249,96.76 C591.784,96.521 592.021,95.897 591.784,95.361 M586.895,98.574 L586.901,98.575 C587.05,98.575 587.2,98.547 587.334,98.487 C587.868,98.249 588.123,97.609 587.885,97.072 C587.736,96.727 587.429,96.524 587.091,96.465 C586.828,96.524 586.564,96.584 586.305,96.639 C585.896,96.924 585.71,97.451 585.92,97.935 C586.097,98.335 586.494,98.572 586.895,98.574 M583.985,98.784 C583.732,98.249 583.107,97.995 582.569,98.233 C582.02,98.471 581.781,99.112 582.02,99.647 C582.198,100.049 582.584,100.288 583.002,100.288 C583.136,100.288 583.285,100.258 583.434,100.198 C583.971,99.961 584.223,99.32 583.985,98.784 M580.07,100.496 C579.833,99.961 579.207,99.707 578.655,99.946 C578.12,100.184 577.866,100.824 578.104,101.359 C578.284,101.761 578.685,101.999 579.088,101.999 C579.235,101.999 579.386,101.97 579.52,101.91 C580.055,101.672 580.31,101.046 580.07,100.496 M575.188,103.711 L575.282,103.692 C575.391,103.68 575.503,103.667 575.618,103.621 C576.156,103.384 576.409,102.759 576.171,102.207 C576.016,101.863 575.692,101.66 575.34,101.61 C575.146,101.581 574.946,101.587 574.756,101.672 C574.204,101.91 573.966,102.535 574.204,103.07 C574.384,103.473 574.77,103.711 575.188,103.711 M573.415,98.502 L573.658,98.447 C573.544,98.456 573.433,98.465 573.32,98.473 L573.415,98.502 M571.272,105.439 C571.421,105.439 571.571,105.409 571.705,105.333 C572.256,105.096 572.494,104.47 572.256,103.934 C572.017,103.384 571.392,103.145 570.842,103.384 C570.305,103.621 570.052,104.248 570.291,104.798 C570.469,105.199 570.87,105.439 571.272,105.439 M569.517,100.184 L569.646,100.159 C569.738,100.151 569.827,100.15 569.919,100.11 C570.409,99.901 570.634,99.32 570.424,98.813 L570.315,98.663 C569.768,98.691 569.22,98.718 568.676,98.739 C568.534,98.995 568.494,99.307 568.622,99.604 C568.787,99.974 569.145,100.184 569.517,100.184 M568.356,105.646 C568.117,105.096 567.479,104.857 566.94,105.096 C566.391,105.333 566.151,105.96 566.391,106.51 C566.569,106.911 566.956,107.151 567.373,107.151 C567.521,107.151 567.656,107.12 567.805,107.06 C568.34,106.822 568.594,106.183 568.356,105.646 M563.458,108.862 L563.67,108.818 L563.891,108.772 C564.44,108.534 564.68,107.895 564.44,107.359 C564.303,107.049 564.034,106.851 563.728,106.77 C563.503,106.71 563.26,106.705 563.024,106.807 C562.491,107.047 562.237,107.684 562.476,108.221 C562.654,108.622 563.056,108.862 563.458,108.862 M562.624,102.207 C562.401,101.702 561.836,101.479 561.331,101.686 C560.839,101.91 560.6,102.491 560.823,102.981 C560.987,103.354 561.345,103.577 561.717,103.577 C561.851,103.577 561.983,103.547 562.118,103.487 C562.608,103.281 562.833,102.699 562.624,102.207 M557.815,105.259 L558.036,105.219 L558.219,105.185 C558.709,104.976 558.933,104.395 558.725,103.89 C558.599,103.612 558.359,103.434 558.089,103.356 C557.879,103.297 557.65,103.293 557.431,103.384 C556.939,103.607 556.7,104.173 556.924,104.678 C557.088,105.051 557.444,105.259 557.815,105.259 M556.627,110.797 C556.388,110.246 555.763,110.007 555.212,110.246 C554.676,110.483 554.422,111.109 554.66,111.645 C554.84,112.047 555.241,112.299 555.643,112.299 C555.791,112.299 555.941,112.271 556.075,112.196 C556.627,111.972 556.865,111.333 556.627,110.797 M551.743,114.012 C551.852,114.012 551.952,113.978 552.056,113.947 L552.175,113.923 C552.711,113.683 552.965,113.045 552.727,112.509 C552.604,112.234 552.377,112.038 552.113,111.939 C551.86,111.845 551.573,111.841 551.312,111.957 C550.775,112.196 550.521,112.821 550.761,113.373 C550.94,113.774 551.325,114.012 551.743,114.012 M546.427,110.284 L546.52,110.26 C547.011,110.053 547.232,109.472 547.025,108.966 C546.919,108.717 546.718,108.538 546.479,108.449 C546.245,108.361 545.979,108.357 545.729,108.46 C545.238,108.682 545.017,109.249 545.224,109.756 C545.389,110.127 545.744,110.35 546.133,110.35 C546.222,110.35 546.325,110.317 546.427,110.284 M545.224,103.754 C545.017,103.31 544.494,103.087 544.048,103.281 C543.585,103.487 543.377,104.008 543.57,104.455 C543.721,104.798 544.048,105.006 544.391,105.006 C544.508,105.006 544.628,104.976 544.746,104.931 C545.194,104.738 545.417,104.201 545.224,103.754 M544.912,115.932 C544.673,115.397 544.033,115.143 543.497,115.382 C542.96,115.619 542.708,116.26 542.946,116.796 C543.124,117.198 543.513,117.436 543.93,117.436 C544.077,117.436 544.226,117.406 544.36,117.346 C544.896,117.108 545.149,116.482 544.912,115.932 M540.444,119.058 L540.446,119.058 C540.997,118.819 541.234,118.194 540.997,117.659 C540.899,117.418 540.713,117.248 540.499,117.141 C540.224,117.004 539.897,116.972 539.598,117.108 C539.047,117.346 538.808,117.97 539.047,118.522 C539.225,118.909 539.612,119.147 540.027,119.147 C540.162,119.147 540.311,119.118 540.444,119.058 M534.433,115.426 C534.55,115.426 534.683,115.395 534.814,115.337 L534.819,115.336 C535.311,115.128 535.548,114.547 535.325,114.042 C535.233,113.824 535.062,113.67 534.864,113.572 C534.615,113.448 534.319,113.42 534.046,113.536 C533.538,113.758 533.316,114.324 533.523,114.83 C533.688,115.203 534.046,115.426 534.433,115.426 M533.538,108.757 C533.345,108.31 532.824,108.103 532.379,108.297 C531.916,108.49 531.709,109.009 531.902,109.456 C532.05,109.799 532.379,110.007 532.72,110.007 C532.84,110.007 532.958,109.978 533.077,109.933 C533.523,109.74 533.733,109.219 533.538,108.757 M533.183,121.081 C532.944,120.546 532.319,120.293 531.782,120.531 C531.23,120.769 530.993,121.41 531.23,121.946 C531.41,122.348 531.797,122.587 532.214,122.587 C532.348,122.587 532.498,122.555 532.632,122.496 C533.183,122.258 533.422,121.618 533.183,121.081 M527.868,122.244 C527.331,122.481 527.078,123.122 527.316,123.658 C527.493,124.059 527.882,124.298 528.3,124.298 C528.448,124.298 528.597,124.267 528.73,124.209 L528.833,124.136 C529.29,123.866 529.503,123.305 529.283,122.794 C529.196,122.6 529.049,122.46 528.883,122.349 C528.592,122.157 528.219,122.092 527.868,122.244 M530.919,117.033 C531.41,116.809 531.648,116.231 531.425,115.738 C531.216,115.248 530.638,115.008 530.145,115.232 C529.64,115.441 529.416,116.021 529.623,116.526 C529.788,116.885 530.145,117.108 530.532,117.108 C530.651,117.108 530.785,117.079 530.919,117.033 M535.659,102.343 C535.409,102.54 535.168,102.75 534.937,102.972 L535.205,102.923 C535.454,102.812 535.608,102.591 535.659,102.343 M538.332,113.729 C538.451,113.729 538.586,113.7 538.72,113.64 C539.21,113.43 539.449,112.852 539.225,112.359 C539.017,111.853 538.436,111.631 537.93,111.839 C537.438,112.062 537.216,112.642 537.423,113.133 C537.589,113.506 537.945,113.729 538.332,113.729 M535.787,107.79 C535.936,108.132 536.263,108.341 536.619,108.341 C536.739,108.341 536.858,108.31 536.963,108.266 C537.423,108.072 537.632,107.551 537.438,107.091 C537.245,106.644 536.711,106.435 536.263,106.629 C535.815,106.822 535.608,107.344 535.787,107.79 M535.682,118.819 C535.146,119.058 534.893,119.682 535.132,120.235 C535.311,120.636 535.696,120.874 536.114,120.874 C536.263,120.874 536.412,120.843 536.546,120.784 C537.082,120.546 537.335,119.905 537.096,119.369 C536.858,118.819 536.219,118.582 535.682,118.819 M539.524,100.303 C539.008,100.474 538.525,100.673 538.06,100.885 C538.188,101.161 538.465,101.345 538.765,101.345 C538.867,101.345 538.987,101.315 539.076,101.27 C539.467,101.117 539.651,100.687 539.524,100.303 M543.237,99.44 C542.925,99.489 542.61,99.537 542.311,99.593 C542.418,99.644 542.527,99.693 542.648,99.693 C542.767,99.693 542.872,99.677 542.96,99.632 C543.07,99.586 543.161,99.518 543.237,99.44 M542.619,111.957 C543.109,111.734 543.349,111.154 543.124,110.662 C542.917,110.172 542.335,109.933 541.843,110.156 C541.339,110.366 541.116,110.945 541.324,111.437 C541.488,111.808 541.843,112.031 542.232,112.031 C542.351,112.031 542.485,112.002 542.619,111.957 M540.795,106.613 L540.862,106.599 C541.311,106.406 541.518,105.884 541.324,105.422 C541.229,105.202 541.051,105.04 540.841,104.955 C540.628,104.87 540.38,104.864 540.147,104.962 C539.702,105.156 539.492,105.676 539.687,106.123 C539.835,106.466 540.162,106.673 540.506,106.673 C540.602,106.673 540.698,106.644 540.795,106.613 M550.031,108.653 C550.149,108.653 550.284,108.622 550.419,108.562 C550.91,108.355 551.147,107.775 550.926,107.284 C550.701,106.777 550.137,106.554 549.629,106.777 C549.139,106.987 548.915,107.567 549.124,108.058 C549.287,108.429 549.645,108.653 550.031,108.653 M547.472,102.788 C547.62,103.13 547.948,103.339 548.29,103.339 C548.409,103.339 548.526,103.31 548.646,103.264 C549.094,103.07 549.302,102.535 549.11,102.09 C548.915,101.642 548.395,101.434 547.934,101.628 C547.486,101.821 547.277,102.343 547.472,102.788 M547.397,113.669 C546.86,113.908 546.608,114.547 546.86,115.084 C547.025,115.486 547.426,115.723 547.842,115.723 C547.978,115.723 548.128,115.694 548.261,115.633 C548.812,115.397 549.051,114.77 548.812,114.22 C548.573,113.683 547.948,113.43 547.397,113.669 M554.32,106.882 C554.81,106.658 555.048,106.076 554.825,105.586 C554.616,105.096 554.036,104.857 553.529,105.082 C553.038,105.289 552.815,105.869 553.023,106.376 C553.187,106.732 553.545,106.957 553.931,106.957 C554.05,106.957 554.184,106.927 554.32,106.882 M552.403,101.625 L552.533,101.598 C552.994,101.406 553.203,100.868 553.007,100.422 C552.9,100.178 552.691,100.009 552.45,99.93 C552.252,99.866 552.034,99.858 551.832,99.946 C551.371,100.139 551.163,100.674 551.357,101.12 C551.505,101.464 551.832,101.672 552.175,101.672 L552.403,101.625 M556.913,98.85 C556.346,98.848 555.79,98.845 555.234,98.844 C555.176,99.042 555.171,99.255 555.258,99.454 C555.406,99.797 555.731,99.99 556.075,99.99 C556.193,99.99 556.313,99.974 556.417,99.93 C556.847,99.751 557.042,99.277 556.913,98.85 M560.541,109.069 C560.302,108.534 559.662,108.297 559.126,108.519 C558.59,108.757 558.337,109.398 558.575,109.933 C558.754,110.336 559.142,110.574 559.559,110.574 C559.707,110.574 559.841,110.543 559.989,110.483 C560.526,110.246 560.778,109.62 560.541,109.069 M566.019,101.805 C566.51,101.582 566.733,101.002 566.524,100.511 C566.302,100.021 565.72,99.781 565.228,100.004 C564.739,100.214 564.5,100.793 564.723,101.285 C564.888,101.657 565.244,101.879 565.617,101.879 C565.75,101.879 565.884,101.85 566.019,101.805 M525.47,124.937 C525.47,124.67 525.351,124.389 525.158,124.192 C524.758,123.792 524.042,123.792 523.641,124.192 C523.433,124.389 523.327,124.67 523.327,124.937 C523.327,125.236 523.433,125.503 523.641,125.697 C523.849,125.905 524.117,126.01 524.397,126.01 C524.532,126.01 524.683,125.995 524.802,125.935 C524.936,125.876 525.056,125.801 525.158,125.697 C525.351,125.503 525.47,125.236 525.47,124.937 M523.252,118.703 C522.986,118.534 522.653,118.481 522.345,118.612 C521.84,118.834 521.616,119.4 521.825,119.905 C521.988,120.279 522.345,120.501 522.732,120.501 C522.865,120.501 522.984,120.472 523.119,120.412 L523.206,120.352 C523.631,120.113 523.834,119.587 523.626,119.118 C523.548,118.933 523.409,118.805 523.252,118.703 M519.428,121.335 C519.517,121.425 519.636,121.499 519.755,121.559 C519.875,121.603 519.993,121.633 520.127,121.633 C520.246,121.633 520.38,121.603 520.499,121.559 C520.619,121.499 520.724,121.439 520.811,121.335 C521.006,121.156 521.109,120.903 521.109,120.651 C521.109,120.383 521.006,120.129 520.811,119.951 C520.455,119.578 519.8,119.578 519.428,119.951 C519.339,120.04 519.264,120.144 519.221,120.263 C519.16,120.397 519.144,120.515 519.144,120.651 C519.144,120.903 519.249,121.156 519.428,121.335 M516.48,115.708 C516.139,115.382 515.559,115.382 515.216,115.708 C515.141,115.798 515.067,115.901 515.022,116.006 C514.977,116.111 514.962,116.231 514.962,116.348 C514.962,116.586 515.051,116.809 515.216,116.972 C515.394,117.138 515.618,117.241 515.854,117.241 C516.093,117.241 516.316,117.138 516.48,116.972 C516.644,116.809 516.749,116.586 516.749,116.348 C516.749,116.231 516.719,116.111 516.675,116.006 C516.63,115.901 516.57,115.798 516.48,115.708 M506.379,166.565 C497.214,169.27 488.165,172.345 479.091,175.331 L451.927,184.48 L448.54,185.655 L446.844,186.26 C446.289,186.426 445.597,186.833 445.123,187.262 C444.161,188.172 443.532,189.232 442.889,190.244 C442.259,191.264 441.637,192.264 440.965,193.224 C439.617,195.131 438.029,196.848 436.101,198.118 C434.239,199.478 431.907,200.095 429.708,200.926 C420.716,204.025 411.614,206.997 402.544,209.971 L372.621,219.742 C372.385,220.483 372.146,221.225 371.915,221.956 C382.305,218.5 392.689,215.031 403.061,211.525 C412.117,208.456 421.146,205.404 430.186,202.184 C432.433,201.306 434.794,200.664 436.822,199.169 C438.88,197.783 440.566,195.913 441.951,193.912 C443.358,191.949 444.365,189.644 445.888,188.089 C446.313,187.733 446.646,187.493 447.235,187.297 L448.908,186.683 L452.273,185.464 L479.26,175.824 C488.276,172.675 497.268,169.434 506.379,166.565 M393.166,115.046 C397.135,97.679 424.176,31.564 380.762,22.262 C342.397,14.04 340.819,34.418 320.476,40.621 C300.134,46.822 276.442,38.078 281.28,30.944 C294.428,44.838 324.941,39.626 333.625,26.727 C342.309,13.826 255.975,6.384 239.354,27.471 C222.73,48.56 233.274,102.642 252.75,147.793 C271.601,191.501 281.13,221.578 283.886,233.259 C293.188,272.704 307.1,265.055 308.38,238.084 C308.516,235.201 307.33,211.799 306.335,194.93 C305.344,178.057 313.835,169.505 321.22,173.097 C333.376,179.01 328.82,215.093 330.309,239.901 C331.796,264.71 343.208,276.121 353.132,242.382 C363.055,208.641 389.196,132.412 393.166,115.046 M359.483,259.578 C359.178,260.209 358.858,260.839 358.524,261.466 L457.253,293.432 L511.853,310.877 L566.527,328.084 L512.176,309.881 L457.763,291.866 L359.483,259.578 z M319.234,248.582 L319.223,248.515 L319.211,248.576 L319.234,248.582 z M277.486,253.014 C277.228,252.377 276.978,251.734 276.735,251.086 L184.671,281.335 L130.259,299.347 L75.906,317.552 L130.583,300.347 L185.182,282.901 L277.486,253.014 z M263.313,230.087 C264.231,229.741 265.15,229.395 266.068,229.051 L239.89,220.502 C230.819,217.531 221.72,214.556 212.726,211.457 C210.526,210.627 208.195,210.011 206.334,208.65 C204.406,207.381 202.818,205.661 201.469,203.757 C200.799,202.798 200.175,201.796 199.545,200.776 C198.902,199.764 198.273,198.705 197.312,197.793 C196.838,197.365 196.146,196.959 195.591,196.793 L193.895,196.188 L190.507,195.013 L163.343,185.863 C154.27,182.878 145.221,179.802 136.057,177.097 C145.168,179.967 154.157,183.207 163.174,186.356 L190.161,195.994 L193.527,197.215 L195.199,197.832 C195.788,198.028 196.12,198.265 196.546,198.622 C198.068,200.176 199.075,202.48 200.485,204.443 C201.867,206.446 203.556,208.315 205.613,209.701 C207.641,211.197 210.002,211.84 212.25,212.718 C221.287,215.937 230.317,218.987 239.373,222.058 C247.346,224.753 255.33,227.423 263.313,230.087 M130.079,178.57 C128.695,178.191 127.238,178.059 125.791,178.171 C124.345,178.286 122.924,178.635 121.546,179.058 C118.819,179.806 116.033,181.381 113.58,179.836 C108.319,177.609 103.09,175.245 97.865,172.894 L66.498,158.826 C56.006,154.22 45.585,149.454 35.154,144.719 C29.936,142.359 24.735,139.954 19.579,137.469 C16.989,136.245 14.412,135 11.87,133.686 C10.599,133.03 9.341,132.352 8.106,131.631 C7.486,131.276 6.874,130.906 6.286,130.504 C5.992,130.302 5.702,130.094 5.434,129.859 C5.192,129.623 4.852,129.371 4.879,129 C4.823,129.376 5.153,129.662 5.379,129.917 C5.632,130.175 5.908,130.408 6.189,130.634 C6.752,131.082 7.34,131.5 7.935,131.904 C9.131,132.702 10.36,133.449 11.597,134.181 C14.071,135.639 16.583,137.031 19.107,138.399 C24.182,141.085 29.311,143.656 34.454,146.201 C44.75,151.264 55.195,156.006 65.623,160.778 C76.123,165.39 86.616,170.021 97.213,174.408 C102.525,176.578 107.817,178.767 113.196,180.812 L114.225,181.173 C114.564,181.309 115.018,181.363 115.401,181.401 C116.193,181.422 116.955,181.298 117.662,181.083 C119.086,180.676 120.385,180.078 121.727,179.596 C124.371,178.596 127.238,177.997 130.079,178.57 M117.634,136.472 C117.752,136.518 117.902,136.547 118.036,136.547 C118.318,136.547 118.586,136.43 118.795,136.236 C118.899,136.131 118.975,136.013 119.034,135.893 C119.078,135.759 119.107,135.624 119.107,135.476 C119.107,135.343 119.078,135.193 119.034,135.075 C118.975,134.94 118.899,134.822 118.795,134.718 C118.393,134.314 117.68,134.314 117.277,134.718 C117.188,134.822 117.098,134.94 117.053,135.075 C116.994,135.193 116.965,135.343 116.965,135.476 C116.965,135.624 116.994,135.759 117.053,135.893 C117.098,136.013 117.172,136.131 117.277,136.236 C117.381,136.34 117.5,136.415 117.634,136.472 M109.789,133.02 C109.939,133.094 110.087,133.11 110.22,133.11 C110.638,133.11 111.025,132.872 111.203,132.47 C111.441,131.934 111.189,131.308 110.653,131.071 C110.117,130.831 109.476,131.071 109.239,131.622 C109.001,132.157 109.253,132.782 109.789,133.02 M109.357,120.455 C109.476,120.515 109.597,120.531 109.716,120.531 C110.058,120.531 110.385,120.338 110.533,119.995 C110.728,119.549 110.519,119.013 110.058,118.819 C109.61,118.626 109.089,118.834 108.896,119.298 C108.688,119.743 108.912,120.279 109.357,120.455 M108.39,124.074 C108.115,123.949 107.819,123.976 107.569,124.103 C107.372,124.201 107.202,124.358 107.11,124.581 C106.887,125.072 107.11,125.651 107.616,125.876 L107.619,125.876 C107.737,125.921 107.87,125.949 108.003,125.949 C108.39,125.949 108.748,125.727 108.912,125.354 C109.12,124.863 108.896,124.283 108.39,124.074 M103.389,129.046 C103.627,128.509 103.374,127.87 102.838,127.632 C102.538,127.498 102.211,127.533 101.935,127.669 C101.717,127.779 101.529,127.948 101.424,128.182 C101.186,128.733 101.439,129.357 101.975,129.597 L101.989,129.599 C102.133,129.654 102.277,129.686 102.407,129.686 C102.823,129.686 103.21,129.447 103.389,129.046 M98.075,127.885 C98.208,127.942 98.357,127.974 98.507,127.974 C98.908,127.974 99.31,127.736 99.488,127.334 C99.727,126.783 99.475,126.158 98.938,125.921 C98.389,125.681 97.763,125.935 97.525,126.471 C97.287,127.006 97.525,127.645 98.075,127.885 M97.687,115.455 C97.791,115.516 97.91,115.53 98.029,115.53 C98.372,115.53 98.715,115.336 98.849,114.994 C99.042,114.534 98.834,114.012 98.389,113.818 C97.926,113.626 97.406,113.833 97.212,114.294 C97.018,114.741 97.226,115.262 97.687,115.455 M96.691,118.998 C96.449,118.889 96.186,118.892 95.956,118.981 C95.719,119.073 95.516,119.254 95.412,119.504 C95.186,119.995 95.425,120.576 95.916,120.8 L96.008,120.818 C96.106,120.846 96.202,120.874 96.303,120.874 C96.691,120.874 97.047,120.651 97.212,120.279 C97.419,119.785 97.195,119.206 96.691,118.998 M91.123,122.496 C90.854,122.372 90.571,122.375 90.32,122.467 C90.057,122.565 89.832,122.764 89.71,123.048 C89.472,123.584 89.71,124.209 90.26,124.446 L90.377,124.471 C90.48,124.501 90.582,124.536 90.692,124.536 C91.108,124.536 91.495,124.298 91.673,123.895 C91.912,123.361 91.66,122.735 91.123,122.496 M86.345,122.735 C86.495,122.794 86.644,122.824 86.792,122.824 C87.194,122.824 87.581,122.587 87.759,122.184 C87.998,121.647 87.759,121.009 87.209,120.769 C86.672,120.531 86.047,120.784 85.795,121.32 C85.557,121.871 85.81,122.496 86.345,122.735 M85.005,113.923 C84.785,113.826 84.557,113.828 84.346,113.888 C84.069,113.969 83.828,114.151 83.709,114.43 C83.487,114.921 83.725,115.501 84.217,115.723 L84.397,115.759 L84.604,115.798 C84.99,115.798 85.348,115.575 85.512,115.203 C85.72,114.711 85.497,114.131 85.005,113.923 M80.316,114.026 C80.451,114.086 80.585,114.102 80.704,114.102 C81.092,114.102 81.448,113.892 81.612,113.52 C81.82,113.014 81.596,112.433 81.105,112.227 C80.6,112.017 80.019,112.241 79.812,112.732 C79.588,113.236 79.826,113.803 80.316,114.026 M79.394,117.346 C79.168,117.245 78.929,117.245 78.706,117.304 C78.402,117.381 78.132,117.578 77.996,117.896 C77.756,118.432 77.996,119.073 78.545,119.311 L78.764,119.356 L78.978,119.4 C79.379,119.4 79.781,119.161 79.945,118.76 C80.183,118.21 79.945,117.584 79.394,117.346 M74.631,117.584 C74.765,117.643 74.913,117.673 75.063,117.673 C75.479,117.673 75.865,117.436 76.044,117.033 C76.283,116.499 76.03,115.872 75.494,115.619 C74.958,115.397 74.317,115.633 74.079,116.185 C73.841,116.722 74.095,117.346 74.631,117.584 M73.751,109.269 C73.209,109.249 72.664,109.223 72.118,109.195 L72.011,109.352 C71.802,109.844 72.026,110.424 72.517,110.647 C72.608,110.677 72.697,110.686 72.787,110.698 L72.919,110.722 C73.29,110.722 73.649,110.5 73.812,110.127 C73.935,109.839 73.894,109.527 73.751,109.269 M67.679,112.196 C67.488,112.11 67.287,112.108 67.093,112.138 C66.742,112.193 66.419,112.403 66.265,112.746 C66.027,113.282 66.28,113.923 66.816,114.16 C66.932,114.206 67.04,114.22 67.151,114.229 L67.248,114.25 C67.664,114.25 68.051,114.012 68.23,113.61 C68.468,113.059 68.215,112.433 67.679,112.196 M62.916,112.449 C63.051,112.509 63.199,112.538 63.348,112.538 C63.75,112.538 64.152,112.299 64.33,111.898 C64.554,111.347 64.315,110.722 63.779,110.483 C63.228,110.246 62.603,110.483 62.365,111.034 C62.127,111.571 62.365,112.211 62.916,112.449 M59.865,108.772 C59.328,108.534 58.688,108.772 58.45,109.309 C58.212,109.859 58.464,110.483 59.001,110.722 C59.15,110.781 59.284,110.811 59.433,110.811 C59.849,110.811 60.236,110.574 60.415,110.172 C60.654,109.636 60.401,109.009 59.865,108.772 M56.147,107.175 C55.88,107.118 55.614,107.058 55.347,106.999 C55.007,107.058 54.701,107.26 54.552,107.595 C54.312,108.146 54.552,108.772 55.101,109.009 C55.236,109.069 55.384,109.1 55.534,109.1 L55.54,109.098 C55.938,109.097 56.338,108.86 56.515,108.46 C56.721,107.993 56.545,107.466 56.147,107.175 M51.187,107.297 C51.335,107.359 51.469,107.388 51.619,107.388 C52.035,107.388 52.421,107.151 52.601,106.747 C52.658,106.618 52.685,106.483 52.689,106.348 C52.026,106.176 51.362,105.993 50.697,105.799 L50.635,105.884 C50.397,106.42 50.651,107.06 51.187,107.297 M39.904,102.237 C40.123,102.237 40.331,102.169 40.507,102.048 C39.958,101.799 39.403,101.528 38.852,101.263 C38.887,101.639 39.106,101.985 39.472,102.149 C39.606,102.207 39.755,102.237 39.904,102.237 M33.043,98.219 C32.42,97.862 31.813,97.505 31.222,97.149 L31.107,97.311 C30.869,97.847 31.122,98.487 31.657,98.724 C31.791,98.784 31.939,98.813 32.09,98.813 L32.311,98.784 C32.622,98.716 32.893,98.519 33.043,98.219 M29.156,96.461 C29.236,96.277 29.245,96.088 29.224,95.905 C28.764,95.607 28.309,95.312 27.869,95.015 C27.585,95.102 27.336,95.298 27.207,95.597 C26.968,96.134 27.207,96.775 27.744,97.014 C27.891,97.072 28.041,97.102 28.174,97.102 C28.591,97.102 28.977,96.863 29.156,96.461 M16.459,91.953 C16.876,91.953 17.264,91.714 17.442,91.311 C17.68,90.776 17.428,90.136 16.892,89.898 C16.354,89.658 15.715,89.913 15.477,90.449 C15.239,90.986 15.493,91.624 16.028,91.864 C16.177,91.924 16.31,91.953 16.459,91.953 M17.352,85.991 L17.338,86.058 C17.338,86.326 17.442,86.563 17.635,86.742 C17.809,86.93 18.04,87.029 18.298,87.035 C17.971,86.686 17.655,86.338 17.352,85.991 M23.843,95.286 C23.976,95.346 24.125,95.375 24.275,95.375 C24.691,95.375 25.078,95.138 25.256,94.736 C25.494,94.199 25.242,93.575 24.706,93.321 C24.169,93.084 23.53,93.335 23.292,93.886 C23.054,94.423 23.308,95.049 23.843,95.286 M20.374,93.663 C20.776,93.663 21.179,93.426 21.341,93.023 C21.581,92.488 21.341,91.847 20.79,91.61 C20.602,91.525 20.405,91.523 20.215,91.55 C19.866,91.605 19.546,91.813 19.392,92.16 C19.153,92.711 19.392,93.335 19.942,93.575 C20.045,93.62 20.16,93.633 20.274,93.642 L20.374,93.663 M35.558,100.436 C35.706,100.496 35.854,100.525 35.989,100.525 C36.271,100.525 36.533,100.41 36.731,100.216 C36.127,99.903 35.531,99.59 34.953,99.277 C34.872,99.754 35.102,100.235 35.558,100.436 M46.662,104.508 C46.62,104.951 46.847,105.397 47.287,105.586 C47.42,105.646 47.57,105.676 47.719,105.676 C48.07,105.676 48.412,105.487 48.613,105.174 C47.965,104.964 47.313,104.736 46.662,104.508 M44.484,103.702 C43.911,103.481 43.336,103.26 42.759,103.022 C42.807,103.382 43.018,103.713 43.373,103.861 C43.521,103.934 43.67,103.965 43.804,103.965 L43.925,103.946 C44.133,103.92 44.326,103.836 44.484,103.702 M68.774,108.981 L69.019,109.026 L69.094,109.004 C68.988,108.995 68.882,108.989 68.774,108.981 M71.579,113.908 C71.044,113.669 70.419,113.923 70.181,114.459 C69.941,115.008 70.181,115.633 70.731,115.872 C70.865,115.932 71.015,115.961 71.163,115.961 C71.565,115.961 71.966,115.723 72.13,115.322 C72.368,114.786 72.13,114.145 71.579,113.908 M39.28,96.787 C74.082,114.455 104.407,95.236 113.941,115.419 C115.711,92.068 78.331,78.775 58.956,73.898 C39.28,68.944 34.595,55.024 46.375,57.433 C50.39,58.638 41.484,42.665 26.564,50.428 C11.644,58.191 4.479,79.117 39.28,96.787 M111.515,127.558 C111.636,127.617 111.769,127.645 111.903,127.645 C112.276,127.645 112.648,127.423 112.812,127.051 C113.019,126.56 112.795,125.98 112.29,125.757 C111.798,125.547 111.219,125.77 111.011,126.277 C110.787,126.768 111.011,127.348 111.515,127.558 M115.104,134.196 C115.342,133.644 115.104,133.02 114.567,132.782 C114.216,132.629 113.843,132.689 113.55,132.884 C113.385,132.993 113.238,133.136 113.154,133.334 C112.933,133.829 113.134,134.401 113.601,134.674 L113.705,134.747 C113.838,134.805 113.988,134.836 114.136,134.836 C114.537,134.836 114.939,134.597 115.104,134.196 M107.229,113.447 C107.321,113.485 107.414,113.506 107.508,113.512 C107.273,113.29 107.03,113.075 106.776,112.875 C106.827,113.123 106.981,113.345 107.229,113.447 M106.753,129.344 C106.203,129.106 105.577,129.357 105.339,129.894 C105.1,130.444 105.339,131.071 105.89,131.308 C106.023,131.368 106.172,131.397 106.321,131.397 C106.723,131.397 107.125,131.16 107.304,130.758 C107.542,130.222 107.289,129.581 106.753,129.344 M103.717,124.179 C103.834,124.237 103.97,124.252 104.103,124.252 C104.49,124.252 104.848,124.046 105.01,123.672 C105.22,123.165 104.997,122.587 104.49,122.377 C103.999,122.154 103.418,122.39 103.21,122.884 C102.987,123.39 103.21,123.955 103.717,124.179 M106.172,117.152 C105.711,116.959 105.19,117.166 104.997,117.629 C104.804,118.075 105.01,118.597 105.458,118.805 C105.577,118.848 105.696,118.865 105.815,118.865 C106.157,118.865 106.485,118.671 106.633,118.329 C106.827,117.882 106.619,117.346 106.172,117.152 M103.344,111.808 C103.448,111.853 103.553,111.868 103.657,111.868 C103.953,111.868 104.227,111.698 104.369,111.414 C103.906,111.202 103.423,111.006 102.91,110.834 C102.788,111.227 102.969,111.641 103.344,111.808 M99.459,110.172 C99.564,110.201 99.668,110.23 99.771,110.23 C99.895,110.23 100.01,110.179 100.119,110.124 C99.819,110.068 99.502,110.019 99.187,109.97 C99.262,110.053 99.352,110.123 99.459,110.172 M99.816,122.481 C99.936,122.541 100.069,122.571 100.204,122.571 C100.59,122.571 100.948,122.348 101.112,121.975 C101.319,121.484 101.096,120.903 100.59,120.68 C100.1,120.472 99.519,120.695 99.31,121.201 C99.086,121.693 99.31,122.274 99.816,122.481 M88.117,117.406 C88.251,117.466 88.385,117.494 88.503,117.494 C88.89,117.494 89.248,117.272 89.411,116.899 C89.62,116.408 89.397,115.827 88.905,115.604 C88.399,115.397 87.819,115.619 87.61,116.125 C87.387,116.617 87.626,117.198 88.117,117.406 M77.206,110.53 C76.699,110.32 76.12,110.543 75.911,111.051 C75.688,111.54 75.926,112.121 76.417,112.33 C76.55,112.39 76.685,112.419 76.804,112.419 C77.191,112.419 77.548,112.196 77.712,111.825 C77.921,111.333 77.697,110.752 77.206,110.53 M83.308,119.058 C82.772,118.819 82.132,119.073 81.894,119.608 C81.656,120.144 81.909,120.784 82.445,121.023 C82.594,121.081 82.728,121.113 82.877,121.113 C83.293,121.113 83.681,120.874 83.859,120.472 C84.098,119.922 83.845,119.298 83.308,119.058 M87.201,109.377 C86.644,109.378 86.087,109.38 85.519,109.384 C85.395,109.817 85.59,110.275 86.003,110.455 C86.122,110.5 86.241,110.53 86.36,110.53 C86.702,110.53 87.03,110.32 87.179,109.993 C87.265,109.786 87.261,109.572 87.201,109.377 M90.245,112.196 C90.587,112.196 90.929,111.988 91.065,111.659 C91.272,111.198 91.048,110.677 90.602,110.483 C90.401,110.396 90.183,110.4 89.983,110.464 C89.743,110.541 89.533,110.708 89.427,110.961 C89.232,111.406 89.442,111.928 89.903,112.121 L90.031,112.149 L90.245,112.196 M94.488,112.151 C94.042,111.957 93.521,112.165 93.326,112.627 C93.133,113.074 93.341,113.596 93.787,113.789 C93.906,113.848 94.025,113.863 94.144,113.863 C94.488,113.863 94.814,113.655 94.963,113.327 C95.158,112.866 94.949,112.344 94.488,112.151 M95.023,124.209 C94.488,123.97 93.863,124.209 93.624,124.759 C93.371,125.294 93.624,125.935 94.175,126.158 C94.309,126.232 94.458,126.261 94.592,126.261 C95.009,126.261 95.396,126.024 95.574,125.623 C95.812,125.072 95.574,124.446 95.023,124.209 M93.311,118.597 C93.521,118.09 93.298,117.51 92.79,117.301 C92.3,117.079 91.719,117.317 91.511,117.807 C91.288,118.314 91.525,118.879 92.017,119.101 C92.151,119.161 92.285,119.178 92.403,119.178 C92.79,119.178 93.147,118.968 93.311,118.597 M101.93,117.198 C102.272,117.198 102.6,117.004 102.749,116.662 C102.942,116.199 102.735,115.679 102.272,115.486 C102.048,115.388 101.804,115.392 101.592,115.48 C101.386,115.567 101.208,115.733 101.112,115.961 C100.918,116.408 101.126,116.93 101.573,117.123 L101.639,117.137 C101.735,117.171 101.833,117.198 101.93,117.198 M115.081,127.713 C115.015,127.786 114.95,127.863 114.909,127.959 C114.686,128.464 114.909,129.046 115.416,129.253 C115.535,129.313 115.668,129.329 115.803,129.329 L115.839,129.318 L115.081,127.713 z M117.533,123.852 C117.871,123.834 118.177,123.656 118.318,123.331 C118.512,122.884 118.29,122.362 117.842,122.154 L117.664,122.118 L117.533,123.852 z M118.885,118.388 C118.988,118.432 119.092,118.448 119.198,118.448 L119.346,118.404 C119.597,118.355 119.829,118.215 119.941,117.956 C120.017,117.785 120.014,117.603 119.966,117.434 C119.902,117.206 119.748,117.002 119.51,116.899 C119.107,116.736 118.631,116.93 118.467,117.33 C118.29,117.733 118.482,118.21 118.885,118.388 M120.566,124.298 C120.373,124.743 120.581,125.28 121.027,125.473 C121.147,125.517 121.266,125.547 121.385,125.547 C121.727,125.547 122.055,125.34 122.204,124.997 C122.397,124.55 122.188,124.029 121.743,123.835 C121.28,123.627 120.759,123.852 120.566,124.298 M122.769,120.025 C122.872,120.071 122.978,120.099 123.083,120.099 C123.394,120.099 123.692,119.905 123.826,119.608 C124.005,119.192 123.811,118.73 123.394,118.551 C122.992,118.374 122.517,118.567 122.353,118.984 C122.174,119.385 122.368,119.862 122.769,120.025 M126.222,120.62 C126.059,121.023 126.253,121.499 126.654,121.677 C126.759,121.722 126.862,121.737 126.966,121.737 C127.278,121.737 127.578,121.543 127.71,121.246 C127.89,120.843 127.696,120.369 127.278,120.189 C126.876,120.025 126.402,120.219 126.222,120.62 M125.687,126.873 C125.687,126.991 125.717,127.111 125.761,127.215 C125.806,127.334 125.865,127.423 125.955,127.513 C126.029,127.588 126.134,127.66 126.237,127.706 C126.356,127.751 126.46,127.765 126.58,127.765 C126.818,127.765 127.042,127.677 127.219,127.513 C127.384,127.334 127.474,127.111 127.474,126.873 C127.474,126.754 127.458,126.651 127.414,126.531 C127.354,126.426 127.294,126.337 127.219,126.247 C126.966,125.995 126.564,125.921 126.237,126.055 C126.134,126.098 126.029,126.158 125.955,126.247 C125.865,126.337 125.806,126.426 125.761,126.531 C125.717,126.651 125.687,126.754 125.687,126.873 M121.623,131.872 C121.802,132.052 122.055,132.157 122.308,132.157 C122.575,132.157 122.813,132.052 123.008,131.872 C123.186,131.68 123.29,131.442 123.29,131.175 C123.29,131.041 123.26,130.921 123.216,130.803 C123.171,130.684 123.096,130.578 123.008,130.475 C122.635,130.117 121.98,130.117 121.623,130.475 C121.43,130.668 121.325,130.921 121.325,131.175 C121.325,131.442 121.43,131.68 121.623,131.872 M118.81,129.657 C118.602,130.115 118.793,130.638 119.229,130.889 L119.316,130.951 C119.434,130.996 119.569,131.025 119.702,131.025 C120.09,131.025 120.447,130.803 120.597,130.43 C120.819,129.939 120.597,129.357 120.09,129.15 C119.781,129.009 119.447,129.062 119.182,129.233 C119.025,129.335 118.887,129.468 118.81,129.657 M130.048,122.587 C130.048,122.794 130.138,123.003 130.287,123.151 C130.435,123.3 130.644,123.374 130.853,123.374 C131.074,123.374 131.269,123.3 131.418,123.151 C131.492,123.076 131.551,122.988 131.596,122.884 C131.641,122.794 131.656,122.69 131.656,122.587 C131.656,122.362 131.566,122.168 131.418,122.005 C131.12,121.708 130.584,121.708 130.287,122.005 C130.138,122.154 130.048,122.362 130.048,122.587 M13.617,89.168 C13.617,89.019 13.602,88.886 13.543,88.752 C13.482,88.618 13.408,88.513 13.303,88.409 C13.214,88.305 13.096,88.23 12.961,88.171 C12.709,88.067 12.411,88.067 12.144,88.171 C12.008,88.23 11.889,88.305 11.801,88.409 C11.592,88.603 11.487,88.886 11.487,89.168 C11.487,89.302 11.503,89.451 11.563,89.57 C11.623,89.705 11.697,89.824 11.801,89.928 C11.994,90.12 12.277,90.24 12.56,90.24 C12.842,90.24 13.111,90.12 13.303,89.928 C13.408,89.824 13.482,89.705 13.543,89.57 C13.602,89.451 13.617,89.302 13.617,89.168 M628.803,78.629 C628.803,78.779 628.834,78.912 628.894,79.046 C628.938,79.164 629.026,79.284 629.117,79.389 C629.221,79.493 629.34,79.567 629.474,79.626 C629.593,79.673 629.742,79.701 629.876,79.701 C630.023,79.701 630.157,79.673 630.292,79.626 C630.411,79.567 630.53,79.493 630.634,79.389 C630.739,79.284 630.813,79.164 630.873,79.046 C630.919,78.912 630.947,78.779 630.947,78.629 C630.947,78.495 630.919,78.346 630.873,78.227 C630.813,78.094 630.739,77.975 630.634,77.871 C630.248,77.483 629.517,77.483 629.117,77.871 C629.026,77.975 628.938,78.094 628.894,78.227 C628.834,78.346 628.803,78.495 628.803,78.629 M633.163,125.789 C598.258,143.787 540.467,169.599 530.473,173.169 C520.478,176.739 520.478,166.744 500.133,173.169 C479.786,179.595 451.945,188.874 447.305,193.514 C442.664,198.154 444.092,201.846 426.959,207.675 C422.858,209.069 401.248,216.089 370.632,225.997 C369.493,229.593 368.422,233.017 367.432,236.227 C462.547,271.933 567.313,311.847 568.758,312.942 C573.346,316.417 573.166,333.728 564.242,330.871 C559.143,329.24 451.504,294.563 357.023,264.063 C353.188,270.219 347.754,275.307 340.074,275.307 C335.005,275.307 323.998,272.783 319.844,252.058 C319.421,251.922 319.001,251.787 318.578,251.649 C314.133,270.76 302.744,272.496 298.833,272.496 L298.829,272.496 C289.226,272.493 282.946,265.047 278.654,255.713 C185.872,285.659 83.17,318.746 78.191,320.341 C69.269,323.195 69.089,305.883 73.676,302.41 C75.036,301.381 167.846,265.991 258.034,232.07 C234.812,224.55 218.93,219.382 215.477,218.207 C198.343,212.379 199.771,208.688 195.132,204.046 C190.49,199.407 162.648,190.126 142.303,183.701 C121.957,177.276 121.957,187.27 111.962,183.701 C101.968,180.133 44.176,154.32 9.272,136.323 C-2.15,130.433 2.507,122.616 5.719,119.137 C6.741,118.028 8.384,116.338 10.148,114.548 L10.435,124.748 C10.5,127.072 12.405,128.91 14.714,128.91 L14.836,128.91 C15.1,128.901 15.354,128.863 15.603,128.812 L15.787,128.842 C16.019,128.837 16.221,128.731 16.363,128.569 L16.44,128.544 C16.973,130.314 18.599,131.598 20.524,131.598 L20.645,131.597 C21.217,131.58 21.756,131.449 22.249,131.233 C22.783,133.002 24.409,134.287 26.333,134.287 L26.455,134.285 C26.992,134.271 27.497,134.147 27.965,133.953 L28.07,133.953 C28.612,135.706 30.231,136.975 32.144,136.975 L32.267,136.973 C32.837,136.958 33.378,136.826 33.87,136.609 C34.403,138.379 36.029,139.662 37.953,139.662 L38.075,139.661 C38.206,139.658 38.329,139.626 38.456,139.612 L38.456,139.619 L39.788,139.619 C40.413,141.221 41.957,142.352 43.764,142.352 L43.886,142.35 C44.457,142.333 44.997,142.202 45.49,141.986 C46.021,143.755 47.648,145.04 49.573,145.04 L49.694,145.038 C50.266,145.023 50.806,144.89 51.3,144.673 C51.831,146.443 53.457,147.727 55.383,147.727 L55.506,147.726 C56.076,147.711 56.617,147.578 57.11,147.362 C57.641,149.131 59.268,150.415 61.191,150.415 L61.314,150.414 C61.681,150.406 62.029,150.334 62.367,150.238 L62.982,150.238 C63.572,151.91 65.147,153.106 67.003,153.106 L67.124,153.103 C67.692,153.087 68.23,152.955 68.72,152.742 L68.731,152.742 C69.264,154.51 70.89,155.791 72.813,155.791 L72.934,155.791 C73.506,155.775 74.045,155.643 74.539,155.426 C75.072,157.196 76.697,158.481 78.622,158.481 L78.744,158.479 C79.171,158.469 79.573,158.375 79.959,158.247 L80.393,158.247 C80.966,159.948 82.556,161.171 84.433,161.171 L84.554,161.168 C85.125,161.152 85.665,161.02 86.159,160.805 C86.69,162.574 88.316,163.856 90.242,163.856 L90.363,163.856 C90.763,163.845 91.141,163.762 91.504,163.649 L92.022,163.649 C92.602,165.336 94.186,166.546 96.052,166.546 L96.174,166.545 C96.747,166.528 97.285,166.395 97.779,166.179 C98.31,167.95 99.936,169.234 101.86,169.234 L101.983,169.233 C102.483,169.22 102.954,169.102 103.395,168.933 L103.609,168.933 C104.163,170.668 105.77,171.923 107.672,171.923 L107.793,171.92 C108.365,171.904 108.905,171.771 109.398,171.555 C109.93,173.326 111.557,174.611 113.48,174.611 L113.603,174.609 C115.2,174.564 116.552,173.641 117.252,172.324 L117.738,172.324 L117.718,171.52 L117.706,171.027 C117.75,170.762 117.773,170.487 117.766,170.208 L117.743,169.437 L117.678,169.419 L117.667,169.558 L117.664,169.413 L116.916,140.287 L116.093,172.246 C115.394,172.802 114.524,173.155 113.563,173.181 L113.44,173.182 C111.736,173.182 110.257,172.177 109.571,170.717 L109.553,170.048 L108.75,138.816 L108.242,158.584 L108.239,158.714 L107.948,170.048 L107.936,170.47 L107.753,170.493 L107.631,170.495 C105.823,170.495 104.277,169.36 103.653,167.758 L102.86,136.897 L102.377,155.704 L102.369,156.045 L102.065,167.789 L101.943,167.806 L101.821,167.807 C100.037,167.807 98.504,166.704 97.865,165.133 L97.863,165.052 L97.061,133.82 L96.567,153.014 L96.558,153.356 L96.257,165.052 L96.256,165.1 L96.134,165.116 L96.012,165.118 C94.311,165.118 92.837,164.117 92.147,162.663 L91.349,131.613 L91.004,144.998 L90.988,145.638 L90.558,162.399 L90.325,162.428 L90.202,162.43 C88.521,162.43 87.064,161.452 86.365,160.025 L86.352,159.508 L85.549,128.274 L85.189,142.266 L85.171,142.951 L84.745,159.508 L84.741,159.711 L84.514,159.74 L84.392,159.742 C82.723,159.742 81.276,158.774 80.573,157.365 L79.77,126.21 L79.419,139.888 L79.409,140.245 L78.979,157.017 C78.886,157.026 78.798,157.05 78.705,157.052 L78.582,157.055 C76.91,157.055 75.461,156.083 74.758,154.668 L74.752,154.432 L73.947,123.2 L73.592,137.063 L73.578,137.565 L73.147,154.331 L72.894,154.365 L72.771,154.365 C71.195,154.365 69.823,153.496 69.08,152.214 L69.073,151.937 L68.269,120.704 L67.475,151.626 C67.343,151.641 67.218,151.672 67.084,151.675 L66.963,151.677 C65.176,151.677 63.645,150.572 63.006,149 L62.214,118.203 L61.731,136.98 L61.725,137.218 L61.422,148.968 L61.274,148.988 L61.152,148.989 C59.228,148.989 57.602,147.706 57.069,145.934 L57.024,145.95 L57.02,145.789 L56.234,115.259 L55.437,146.3 L55.343,146.3 C53.663,146.3 52.206,145.321 51.508,143.898 L51.506,143.813 L50.702,112.581 L50.35,126.288 L50.336,126.814 L49.906,143.579 L49.655,143.612 L49.532,143.612 C48.031,143.612 46.712,142.829 45.946,141.644 L45.929,140.959 L45.125,109.725 L44.324,140.862 C44.165,140.883 44.011,140.917 43.846,140.922 L43.723,140.925 C42.184,140.925 40.84,140.097 40.084,138.865 L40.084,138.816 L39.28,107.583 L38.493,138.176 C38.341,138.197 38.192,138.231 38.036,138.234 L37.913,138.236 C36.302,138.236 34.904,137.33 34.173,136.001 L34.161,135.477 L33.356,104.246 L32.988,118.565 L32.985,118.722 L32.554,135.477 L32.553,135.503 C32.442,135.515 32.339,135.544 32.226,135.547 L32.103,135.547 C30.704,135.547 29.462,134.868 28.679,133.819 L27.857,101.918 L27.064,132.775 C26.852,132.813 26.64,132.851 26.416,132.859 L26.294,132.859 C24.838,132.859 23.547,132.129 22.772,131.008 L22.792,131.008 L22.772,130.205 L21.969,98.972 L21.168,130.097 C20.983,130.128 20.799,130.165 20.605,130.171 L20.484,130.172 C18.745,130.172 17.238,129.129 16.569,127.622 L16.569,127.617 L15.766,96.386 L15.589,103.282 L15.579,103.718 L14.967,127.459 L14.796,127.482 L14.674,127.484 C12.364,127.484 10.459,125.644 10.395,123.319 L9.52,92.188 L9.48,90.761 C9.458,89.967 9.668,89.224 10.029,88.574 C10.74,87.296 12.072,86.404 13.642,86.36 C14.184,86.351 14.701,86.45 15.186,86.623 C15.25,86.086 15.414,85.584 15.659,85.126 C15.782,84.895 15.925,84.68 16.086,84.478 C11.393,78.528 10.02,72.983 9.999,68.574 C9.955,59.788 15.556,51.399 24.617,46.686 C27.95,44.951 31.318,44.073 34.629,44.073 C44.288,44.073 51.558,51.815 51.558,56.834 C51.558,58.044 51.169,59.148 50.435,60.028 C49.538,61.101 48.2,61.717 46.765,61.717 C46.319,61.717 45.863,61.659 45.409,61.543 C45.247,61.511 45.091,61.483 44.94,61.461 C46.577,63.693 51.077,67.563 59.988,69.806 C77.704,74.263 118.07,87.328 118.205,113.621 C119.685,113.894 120.883,114.938 121.404,116.324 C121.919,116.084 122.489,115.938 123.093,115.923 C124.967,115.876 126.577,117.041 127.203,118.699 C127.719,118.457 128.29,118.314 128.894,118.296 C131.249,118.215 133.229,120.093 133.295,122.458 L134.294,158.027 C135.448,159.735 136.9,161.28 139.268,162.464 C142.297,163.977 181.3,177.097 193.077,179.774 C204.857,182.453 207.234,180.071 215.265,180.607 C216.975,180.722 233.831,186.684 259.331,196.018 C254.786,183.762 249.004,169.178 241.814,152.508 C222.86,108.561 208.394,47.514 230.002,20.101 C242.191,4.635 272.479,2.326 289.447,2.326 C304.92,2.326 330.568,3.932 341.168,13.849 C347.105,10.755 354.538,8.428 364.626,8.428 C370.285,8.428 376.378,9.144 383.256,10.619 C395.241,13.188 404.587,19.617 410.283,29.214 C424.031,52.384 413.559,87.648 407.304,108.717 C406.195,112.446 405.238,115.668 404.773,117.698 C402.44,127.909 393.391,155.72 383.807,185.16 L383.782,185.237 C408.906,176.045 425.476,170.187 427.169,170.075 C435.2,169.54 437.578,171.919 449.357,169.243 C461.136,166.565 500.137,153.446 503.167,151.932 C505.535,150.746 506.987,149.201 508.141,147.494 L509.14,111.925 C509.203,109.601 511.106,107.762 513.417,107.762 L513.541,107.764 C514.146,107.781 514.716,107.927 515.231,108.166 C515.862,106.495 517.483,105.309 519.342,105.39 C519.945,105.408 520.513,105.55 521.025,105.789 C521.54,104.397 522.73,103.346 524.229,103.083 C524.372,76.793 564.732,63.732 582.448,59.274 C591.357,57.031 595.856,53.161 597.494,50.93 C597.343,50.952 597.188,50.978 597.026,51.01 C596.571,51.126 596.115,51.186 595.67,51.186 C594.234,51.186 592.896,50.569 592,49.495 C591.265,48.616 590.877,47.512 590.877,46.303 C590.877,41.282 598.146,33.541 607.806,33.541 C611.116,33.541 614.484,34.418 617.817,36.153 C626.878,40.868 632.48,49.255 632.437,58.044 C632.415,62.451 631.042,67.996 626.348,73.946 C626.51,74.148 626.651,74.363 626.774,74.593 C627.02,75.052 627.185,75.553 627.249,76.091 C627.734,75.914 628.255,75.814 628.792,75.828 C630.361,75.871 631.695,76.763 632.404,78.043 C632.765,78.692 632.976,79.433 632.952,80.23 L632.914,81.649 L632.039,112.787 C631.974,115.111 630.07,116.951 627.761,116.951 L627.637,116.95 L627.467,116.927 L626.856,93.178 L626.845,92.728 L626.667,85.852 L625.864,117.083 L625.864,117.092 C625.194,118.597 623.689,119.638 621.951,119.638 L621.829,119.638 C621.636,119.632 621.452,119.596 621.267,119.566 L620.466,88.44 L619.663,119.673 L619.642,120.474 L619.661,120.474 C618.888,121.596 617.597,122.326 616.142,122.326 L616.02,122.326 C615.795,122.32 615.582,122.28 615.37,122.242 L614.576,91.385 L613.773,122.617 L613.757,123.286 C612.974,124.334 611.73,125.016 610.332,125.016 L610.207,125.014 C610.096,125.012 609.992,124.983 609.881,124.972 L609.881,124.943 L609.078,93.712 L608.274,124.943 L608.262,125.469 C607.531,126.798 606.133,127.704 604.521,127.704 L604.397,127.703 C604.242,127.699 604.093,127.664 603.94,127.644 L603.781,121.407 L603.653,116.502 L603.154,97.051 L602.351,128.284 L602.351,128.334 C601.596,129.567 600.25,130.392 598.711,130.392 L598.589,130.389 C598.424,130.385 598.269,130.35 598.11,130.328 L597.31,99.194 L596.488,131.114 C595.724,132.297 594.404,133.08 592.903,133.08 L592.78,133.079 L592.53,133.045 L592.098,116.282 L592.085,115.757 L591.731,102.048 L590.929,133.283 L590.927,133.366 C590.228,134.789 588.772,135.768 587.094,135.768 L586.998,135.767 L586.199,104.726 L585.415,135.255 L585.41,135.418 L585.366,135.402 C584.833,137.172 583.207,138.457 581.282,138.457 L581.159,138.454 L581.012,138.435 L580.221,107.671 L579.429,138.467 C578.791,140.04 577.259,141.145 575.473,141.145 L575.35,141.144 C575.216,141.14 575.091,141.108 574.96,141.093 L574.164,110.174 L573.354,141.682 C572.61,142.965 571.24,143.833 569.664,143.833 L569.541,143.832 L569.287,143.801 L568.855,127.033 L568.843,126.531 L568.487,112.667 L567.683,143.9 L567.678,144.138 C566.975,145.551 565.525,146.521 563.854,146.521 L563.729,146.519 C563.636,146.517 563.548,146.493 563.456,146.485 L563.024,129.714 L563.016,129.355 L562.663,115.679 L561.863,146.832 C561.157,148.243 559.712,149.21 558.044,149.21 L557.92,149.208 L557.694,149.18 L557.688,148.974 L557.264,132.419 L557.245,131.728 L556.886,117.743 L556.083,148.974 L556.069,149.492 C555.371,150.918 553.914,151.898 552.233,151.898 L552.109,151.897 L551.877,151.866 L551.445,135.105 L551.429,134.462 L551.085,121.081 L550.287,152.131 C549.598,153.584 548.123,154.586 546.423,154.586 L546.3,154.586 L546.179,154.568 L546.178,154.519 L545.375,123.286 L544.571,154.519 L544.57,154.601 C543.931,156.172 542.397,157.274 540.614,157.274 L540.49,157.272 L540.369,157.258 L540.065,145.511 L540.059,145.172 L539.938,140.518 L539.574,126.365 L538.78,157.226 C538.157,158.83 536.611,159.964 534.805,159.964 L534.681,159.961 L534.498,159.938 L534.488,159.516 L534.196,148.18 L534.193,148.05 L534.067,143.186 L533.685,128.284 L532.881,159.516 L532.863,160.184 C532.179,161.645 530.699,162.65 528.994,162.65 L528.869,162.649 C527.909,162.622 527.041,162.269 526.341,161.715 L526.323,160.988 L525.52,129.756 L524.771,158.882 L524.767,159.027 L524.758,158.885 L524.692,158.906 L524.67,159.675 C524.661,159.955 524.686,160.228 524.729,160.494 L524.717,160.988 L524.694,161.793 L525.183,161.793 C525.881,163.109 527.232,164.031 528.83,164.076 L528.953,164.077 C530.877,164.077 532.504,162.793 533.036,161.024 C533.529,161.24 534.068,161.372 534.64,161.388 L534.764,161.389 C536.662,161.389 538.271,160.137 538.825,158.401 L539.038,158.401 C539.481,158.571 539.95,158.686 540.451,158.701 L540.573,158.701 C542.498,158.701 544.125,157.418 544.656,155.646 C545.149,155.864 545.689,155.997 546.261,156.013 L546.384,156.014 C548.25,156.014 549.833,154.805 550.414,153.117 L550.931,153.117 C551.295,153.23 551.671,153.313 552.07,153.323 L552.194,153.325 C554.118,153.325 555.744,152.041 556.276,150.271 C556.77,150.488 557.309,150.619 557.879,150.636 L558.003,150.638 C559.878,150.638 561.469,149.415 562.041,147.715 L562.475,147.715 C562.86,147.842 563.263,147.935 563.689,147.948 L563.812,147.948 C565.737,147.948 567.364,146.664 567.896,144.893 C568.389,145.111 568.929,145.243 569.499,145.259 L569.623,145.26 C571.546,145.26 573.173,143.977 573.705,142.209 L573.715,142.209 C574.205,142.424 574.741,142.555 575.31,142.571 L575.434,142.573 C577.289,142.573 578.864,141.377 579.453,139.707 L580.068,139.707 C580.406,139.802 580.754,139.873 581.12,139.883 L581.243,139.885 C583.168,139.885 584.794,138.599 585.326,136.83 C585.818,137.045 586.356,137.178 586.929,137.195 L587.052,137.196 C588.976,137.196 590.604,135.912 591.135,134.142 C591.627,134.359 592.167,134.49 592.738,134.506 L592.862,134.508 C594.788,134.508 596.414,133.223 596.945,131.452 C597.438,131.671 597.978,131.802 598.549,131.817 L598.673,131.82 C600.479,131.82 602.021,130.689 602.647,129.086 L603.978,129.086 L603.978,129.081 C604.105,129.095 604.228,129.124 604.359,129.131 L604.482,129.131 C606.406,129.131 608.033,127.847 608.565,126.076 C609.057,126.293 609.597,126.426 610.168,126.442 L610.29,126.443 C612.202,126.443 613.821,125.174 614.363,123.42 L614.47,123.42 C614.937,123.614 615.442,123.738 615.978,123.752 L616.101,123.755 C618.026,123.755 619.652,122.469 620.183,120.699 C620.677,120.916 621.217,121.048 621.788,121.064 L621.911,121.067 C623.836,121.067 625.462,119.781 625.993,118.012 L626.08,118.041 C626.231,118.208 626.445,118.317 626.688,118.309 L626.829,118.278 C627.079,118.33 627.335,118.369 627.599,118.377 L627.721,118.379 C630.032,118.379 631.936,116.54 632,114.215 L632.286,104.016 C634.051,105.805 635.692,107.495 636.716,108.603 C639.928,112.084 644.583,119.9 633.163,125.789 M32.693,67.755 C31.529,65.837 30.728,63.525 31.072,61.198 C31.39,58.867 32.909,56.892 34.767,55.694 C36.632,54.459 38.788,53.837 40.931,53.507 C38.823,54.026 36.766,54.834 35.06,56.109 C33.357,57.374 32.14,59.259 31.996,61.303 C31.85,63.345 32.597,65.365 33.747,67.092 C34.903,68.828 36.394,70.371 38.077,71.612 C39.764,72.871 41.636,73.907 43.553,74.851 C45.463,75.81 47.441,76.656 49.443,77.451 C53.46,79.011 57.55,80.434 61.683,81.753 C69.929,84.442 78.293,86.906 86.455,90.049 C90.523,91.645 94.56,93.366 98.401,95.505 C100.303,96.608 102.148,97.82 103.836,99.233 C105.516,100.642 107.06,102.285 108.036,104.246 C105.577,100.606 101.732,98.345 97.896,96.458 C94.036,94.539 89.975,93.027 85.878,91.636 C77.675,88.859 69.313,86.485 61.022,83.774 C56.886,82.394 52.741,80.992 48.699,79.274 C44.669,77.553 40.638,75.646 37.14,72.805 C35.395,71.377 33.875,69.687 32.693,67.755" fill="#0B0B09"/>
  </g>
</svg>
